<mxfile host="app.diagrams.net" modified="2022-03-01T08:35:42.012Z" agent="5.0 (Macintosh; Intel Mac OS X 10_15_7) AppleWebKit/537.36 (KHTML, like Gecko) Chrome/98.0.4758.102 Safari/537.36" etag="AqI0dEz8ZhrfPF6Nxpww" version="16.6.4" type="github">
  <diagram id="l-WhUf16V24pGwMvBwI5" name="Page-1">
    <mxGraphModel dx="946" dy="621" grid="1" gridSize="10" guides="1" tooltips="1" connect="1" arrows="1" fold="1" page="1" pageScale="1" pageWidth="1200" pageHeight="1920" math="0" shadow="0">
      <root>
        <mxCell id="0" />
        <mxCell id="1" parent="0" />
        <mxCell id="a76JSc2j8-_uZe8-sltO-3" value="" style="edgeStyle=orthogonalEdgeStyle;rounded=0;orthogonalLoop=1;jettySize=auto;html=1;" edge="1" parent="1" source="a76JSc2j8-_uZe8-sltO-1" target="a76JSc2j8-_uZe8-sltO-2">
          <mxGeometry relative="1" as="geometry" />
        </mxCell>
        <mxCell id="a76JSc2j8-_uZe8-sltO-1" value="" style="shape=cylinder3;whiteSpace=wrap;html=1;boundedLbl=1;backgroundOutline=1;size=15;" vertex="1" parent="1">
          <mxGeometry x="40" y="260" width="60" height="80" as="geometry" />
        </mxCell>
        <mxCell id="a76JSc2j8-_uZe8-sltO-5" value="" style="edgeStyle=orthogonalEdgeStyle;rounded=0;orthogonalLoop=1;jettySize=auto;html=1;" edge="1" parent="1" source="a76JSc2j8-_uZe8-sltO-2" target="a76JSc2j8-_uZe8-sltO-4">
          <mxGeometry relative="1" as="geometry" />
        </mxCell>
        <mxCell id="a76JSc2j8-_uZe8-sltO-2" value="klc-api" style="whiteSpace=wrap;html=1;" vertex="1" parent="1">
          <mxGeometry x="160" y="270" width="120" height="60" as="geometry" />
        </mxCell>
        <mxCell id="a76JSc2j8-_uZe8-sltO-7" value="" style="edgeStyle=orthogonalEdgeStyle;rounded=0;orthogonalLoop=1;jettySize=auto;html=1;" edge="1" parent="1" source="a76JSc2j8-_uZe8-sltO-4" target="a76JSc2j8-_uZe8-sltO-6">
          <mxGeometry relative="1" as="geometry" />
        </mxCell>
        <mxCell id="a76JSc2j8-_uZe8-sltO-9" value="" style="edgeStyle=orthogonalEdgeStyle;rounded=0;orthogonalLoop=1;jettySize=auto;html=1;exitX=0.5;exitY=0;exitDx=0;exitDy=0;entryX=0;entryY=0.5;entryDx=0;entryDy=0;" edge="1" parent="1" source="a76JSc2j8-_uZe8-sltO-4" target="a76JSc2j8-_uZe8-sltO-8">
          <mxGeometry relative="1" as="geometry" />
        </mxCell>
        <mxCell id="a76JSc2j8-_uZe8-sltO-4" value="rekap survei pelatihan" style="whiteSpace=wrap;html=1;" vertex="1" parent="1">
          <mxGeometry x="360" y="270" width="120" height="60" as="geometry" />
        </mxCell>
        <mxCell id="a76JSc2j8-_uZe8-sltO-14" style="edgeStyle=orthogonalEdgeStyle;rounded=0;orthogonalLoop=1;jettySize=auto;html=1;entryX=0;entryY=0.5;entryDx=0;entryDy=0;entryPerimeter=0;" edge="1" parent="1" source="a76JSc2j8-_uZe8-sltO-6" target="a76JSc2j8-_uZe8-sltO-12">
          <mxGeometry relative="1" as="geometry" />
        </mxCell>
        <mxCell id="a76JSc2j8-_uZe8-sltO-6" value="open question classification" style="whiteSpace=wrap;html=1;" vertex="1" parent="1">
          <mxGeometry x="560" y="270" width="120" height="60" as="geometry" />
        </mxCell>
        <mxCell id="a76JSc2j8-_uZe8-sltO-13" style="edgeStyle=orthogonalEdgeStyle;rounded=0;orthogonalLoop=1;jettySize=auto;html=1;" edge="1" parent="1" source="a76JSc2j8-_uZe8-sltO-8" target="a76JSc2j8-_uZe8-sltO-12">
          <mxGeometry relative="1" as="geometry" />
        </mxCell>
        <mxCell id="a76JSc2j8-_uZe8-sltO-8" value="close question summary" style="whiteSpace=wrap;html=1;" vertex="1" parent="1">
          <mxGeometry x="560" y="140" width="120" height="60" as="geometry" />
        </mxCell>
        <mxCell id="a76JSc2j8-_uZe8-sltO-16" value="" style="edgeStyle=orthogonalEdgeStyle;rounded=0;orthogonalLoop=1;jettySize=auto;html=1;" edge="1" parent="1" source="a76JSc2j8-_uZe8-sltO-12" target="a76JSc2j8-_uZe8-sltO-15">
          <mxGeometry relative="1" as="geometry" />
        </mxCell>
        <mxCell id="a76JSc2j8-_uZe8-sltO-12" value="ev" style="shape=cylinder3;whiteSpace=wrap;html=1;boundedLbl=1;backgroundOutline=1;size=15;" vertex="1" parent="1">
          <mxGeometry x="780" y="260" width="60" height="80" as="geometry" />
        </mxCell>
        <mxCell id="a76JSc2j8-_uZe8-sltO-15" value="laporan" style="whiteSpace=wrap;html=1;" vertex="1" parent="1">
          <mxGeometry x="950" y="270" width="120" height="60" as="geometry" />
        </mxCell>
      </root>
    </mxGraphModel>
  </diagram>
</mxfile>
